{"title":"Aanmai Thavarael (Tamil 2011) LOTUS DVDRip TDM@mastitorrents","uid":6557715,"size":600168993,"categoryP":"video","categoryS":"movies","magnet":"?xt=urn:btih:fee37fa12da0b043887f8e727cfa80bd3116c2cf&amp;dn=+Aanmai+Thavarael+%28Tamil+2011%29+LOTUS+DVDRip+TDM%40mastitorrents&amp;tr=udp%3A%2F%2Ftracker.openbittorrent.com%3A80&amp;tr=udp%3A%2F%2Fopen.demonii.com%3A1337&amp;tr=udp%3A%2F%2Ftracker.coppersurfer.tk%3A6969&amp;tr=udp%3A%2F%2Fexodus.desync.com%3A6969","seeders":0,"leechers":1,"uploader":"tdkdemon","files":-1,"time":1311340564,"description":"mastitorrents.com\n  &lt;a href=&quot;\nhttp://mastitorrents.com/forums/index.php&quot; rel=&quot;nofollow&quot; target=&quot;_NEW&quot;&gt;\nhttp://mastitorrents.com/forums/index.php&lt;/a&gt;\n\n\n\n\n8b    d8    db    .dP&quot;Y8 888888 88 888888  dP&quot;Yb  88&quot;&quot;Yb 88&quot;&quot;Yb 888888 88b 88 888888 .dP&quot;Y8 \n88b  d88   dPYb   `Ybo.&quot;   88   88   88   dP   Yb 88__dP 88__dP 88__   88Yb88   88   `Ybo.&quot; \n88YbdP88  dP__Yb  o.`Y8b   88   88   88   Yb   dP 88&quot;Yb  88&quot;Yb  88&quot;&quot;   88 Y88   88   o.`Y8b \n88 YY 88 dP&quot;&quot;&quot;&quot;Yb 8bodP'   88   88   88    YbodP  88  Yb 88  Yb 888888 88  Y8   88   8bodP' \n\n\n\nMASTI TORRENTS RELEASERS [ MTR ]\n\n    Where Quality Matters!\n\n\n\n\n\n\n\n\n\n\n\ndescription:\n\n\n\n\nGeneral\nComplete name : Aanmai Thavarael (Tamil 2011) LOTUS FIVESTAR 1Cd DVDRip TDM -=MTR=- mastitorrents.avi\nFormat : AVI\nFormat/Info : Audio Video Interleave\nFile size : 572 MiB\nDuration : 2h 16mn\nOverall bit rate : 586 Kbps\nWriting application : Lavf52.93.0\n\nVideo\nID : 0\nFormat : MPEG-4 Visual\nFormat profile : Simple@L1\nFormat settings, BVOP : No\nFormat settings, QPel : No\nFormat settings, GMC : No warppoints\nFormat settings, Matrix : Default (H.263)\nCodec ID : FMP4\nDuration : 2h 16mn\nBit rate : 446 Kbps\nWidth : 608 pixels\nHeight : 256 pixels\nDisplay aspect ratio : 2.40:1\nFrame rate : 23.976 fps\nColor space : YUV\nChroma subsampling : 4:2:0\nBit depth : 8 bits\nScan type : Progressive\nCompression mode : Lossy\nBits/(Pixel*Frame) : 0.120\nStream size : 436 MiB (76%)\nWriting library : Lavc52.108.0\n\nAudio\nID : 1\nFormat : MPEG Audio\nFormat version : Version 1\nFormat profile : Layer 2\nCodec ID : 50\nDuration : 2h 16mn\nBit rate mode : Constant\nBit rate : 128 Kbps\nChannel(s) : 2 channels\nSampling rate : 44.1 KHz\nCompression mode : Lossy\nStream size : 125 MiB (22%)\nAlignment : Aligned on interleaves\nInterleave, duration : 26 ms (0.63 video frame)\nInterleave, preload duration : 26 ms\n\n\nRIPPER : TheDarkMaster -=TDM=-\n\n\nPLOT:\nA youngster tries to save his lover, who is kidnapped and being forced in to slave trade.\n\nDirector: Kuzhandai Velapan\nWriter: Kuzhanthai Velappan (story)\nStars: Dhruva, Sampath Raj and Shruti\n\n\n\n\nScreens/Covers:\n\n &lt;a href=&quot;\nhttp://bollywoodreleases.info/images/99122174863373832377.png&quot; rel=&quot;nofollow&quot; target=&quot;_NEW&quot;&gt;\nhttp://bollywoodreleases.info/images/99122174863373832377.png&lt;/a&gt; &lt;a href=&quot;\nhttp://bollywoodreleases.info/images/91111862706264843117.png&quot; rel=&quot;nofollow&quot; target=&quot;_NEW&quot;&gt;\nhttp://bollywoodreleases.info/images/91111862706264843117.png&lt;/a&gt; &lt;a href=&quot;\nhttp://bollywoodreleases.info/images/04289121084107974933.png&quot; rel=&quot;nofollow&quot; target=&quot;_NEW&quot;&gt;\nhttp://bollywoodreleases.info/images/04289121084107974933.png&lt;/a&gt; &lt;a href=&quot;\nhttp://bollywoodreleases.info/images/71176302047373601107.png&quot; rel=&quot;nofollow&quot; target=&quot;_NEW&quot;&gt;\nhttp://bollywoodreleases.info/images/71176302047373601107.png&lt;/a&gt; &lt;a href=&quot;\nhttp://bollywoodreleases.info/images/01678241373227013209.png&quot; rel=&quot;nofollow&quot; target=&quot;_NEW&quot;&gt;\nhttp://bollywoodreleases.info/images/01678241373227013209.png&lt;/a&gt; &lt;a href=&quot;\nhttp://bollywoodreleases.info/images/39097223651527342751.png&quot; rel=&quot;nofollow&quot; target=&quot;_NEW&quot;&gt;\nhttp://bollywoodreleases.info/images/39097223651527342751.png&lt;/a&gt; &lt;a href=&quot;\nhttp://bollywoodreleases.info/images/98615142728905267565.png&quot; rel=&quot;nofollow&quot; target=&quot;_NEW&quot;&gt;\nhttp://bollywoodreleases.info/images/98615142728905267565.png&lt;/a&gt; &lt;a href=&quot;\nhttp://bollywoodreleases.info/images/35741969210176414299.png&quot; rel=&quot;nofollow&quot; target=&quot;_NEW&quot;&gt;\nhttp://bollywoodreleases.info/images/35741969210176414299.png&lt;/a&gt; &lt;a href=&quot;\nhttp://bollywoodreleases.info/images/42322078911149660629.png&quot; rel=&quot;nofollow&quot; target=&quot;_NEW&quot;&gt;\nhttp://bollywoodreleases.info/images/42322078911149660629.png&lt;/a&gt; &lt;a href=&quot;\nhttp://bollywoodreleases.info/images/56778931122396519725.png&quot; rel=&quot;nofollow&quot; target=&quot;_NEW&quot;&gt;\nhttp://bollywoodreleases.info/images/56778931122396519725.png&lt;/a&gt;\n\n\n\n\n\n****check out my other releases****\n\n &lt;a href=&quot;\nhttp://thepiratebay.se/user/tdkdemon/&quot; rel=&quot;nofollow&quot; target=&quot;_NEW&quot;&gt;\nhttp://thepiratebay.se/user/tdkdemon/&lt;/a&gt;\n\n\n\n\n\n\n\n\n\n\n\n\n\n    &lt;&lt;&lt;&lt;&lt;&lt;&lt;SUPERFAST RELEASES BROUGHT TO YOU BY&gt;&gt;&gt;&gt;&gt;&gt;\n\n          \n\n\n                                  Masti Torrent Releasers [ MTR ]\n\n\n\n\n\n            8888b.  888888 8b    d8  dP&quot;Yb  88b 88     88888 8b    d8 888888 88&quot;&quot;Yb 88888 \n             8I  Yb 88__   88b  d88 dP   Yb 88Yb88     88    88b  d88   88   88__dP    88 \n             8I  dY 88&quot;&quot;   88YbdP88 Yb   dP 88 Y88     88    88YbdP88   88   88&quot;Yb     88 \n            8888Y&quot;  888888 88 YY 88  YbodP  88  Y8     88888 88 YY 88   88   88  Yb 88888 \n","torrent":{"xt":"urn:btih:fee37fa12da0b043887f8e727cfa80bd3116c2cf","amp;dn":"+Aanmai+Thavarael+%28Tamil+2011%29+LOTUS+DVDRip+TDM%40mastitorrents","amp;tr":["udp%3A%2F%2Ftracker.openbittorrent.com%3A80","udp%3A%2F%2Fopen.demonii.com%3A1337","udp%3A%2F%2Ftracker.coppersurfer.tk%3A6969","udp%3A%2F%2Fexodus.desync.com%3A6969"],"infoHash":"fee37fa12da0b043887f8e727cfa80bd3116c2cf","infoHashBuffer":{"type":"Buffer","data":[254,227,127,161,45,160,176,67,136,127,142,114,124,250,128,189,49,22,194,207]},"announce":[],"urlList":[]}}